<?xml version="1.0" encoding="utf-8"?>
<!-- Generator: Adobe Illustrator 25.2.0, SVG Export Plug-In . SVG Version: 6.00 Build 0)  -->
<svg version="1.1" id="Layer_1" xmlns="http://www.w3.org/2000/svg" xmlns:xlink="http://www.w3.org/1999/xlink" x="0px" y="0px"
	 viewBox="0 0 4373 869" style="enable-background:new 0 0 4373 869;" xml:space="preserve">
<style type="text/css">
	.st0{fill:#D90068;}
</style>
<g>
	<path class="st0" d="M3985,182.4c-133.9,0-242.6,108.7-242.6,242.6s108.7,242.6,242.6,242.6c133.9,0,242.6-108.7,242.6-242.6
		S4118.8,182.4,3985,182.4z M3985,572.6c-81.5,0-147.6-66.1-147.6-147.6s66.1-147.6,147.6-147.6c81.6,0,147.6,66.1,147.6,147.6
		S4066.5,572.6,3985,572.6z"/>
	<path class="st0" d="M994,182.7c-26.3,0-47.3,21.3-47.3,47.3v195.2c0,81.5-66.1,147.6-147.6,147.6c-81.5,0-147.6-66.1-147.6-147.6
		V230c0-26.3-21.3-47.3-47.3-47.3S556.8,204,556.8,230v195.2c0,133.9,108.7,242.6,242.6,242.6S1042,559.1,1042,425.3V230
		C1041.7,204,1020.3,182.7,994,182.7z"/>
	<path class="st0" d="M2872.5,182.4c-133.9-0.3-242.6,108.1-243.2,242l-0.3,194.7c0,0.3,0,0.3,0,0.6c-0.6,26.3,19.9,47.9,46.2,48.8
		c26.3,0.6,47.9-19.9,48.8-46.2c0-0.9,0-1.5,0-2.3c0-0.3,0-0.6,0-0.6l0.3-194.4c0.3-81.5,66.3-147.6,147.9-147.3
		c81.6,0.3,147.6,66.3,147.3,147.9l-0.3,194.4c0,0.3,0,0.3,0,0.6c0,26.3,21.1,47.6,47.4,47.6c26.3,0,47.6-21,47.6-47.3
		c0-0.3,0-0.3,0-0.6l0.3-194.4C3114.8,291.7,3006.4,182.7,2872.5,182.4z"/>
	<path class="st0" d="M1630.6,182.4c-56.1,0-109.6,22.8-147.9,63.7c-1.5,1.8-3.5,2.9-5.8,3.5c-4.1,1.2-8.5,0-11.4-3.2
		c-77.4-81.8-206.6-85.6-288.8-8.2c-40.9,38.6-64,92.4-64,148.5v233.2c0,0.3,0,0.3,0,0.6c0,26.3,21.3,47.3,47.4,47.3
		c26,0,47.3-21.3,47.3-47.3c0-0.3,0-0.3,0-0.6V386.7c0.9-60.2,50.6-108.4,111.1-107.6c59,0.9,106.4,48.5,107.6,107.6v233.2v0.3
		c0,26.3,21.3,47.6,47.6,47.6c26.3,0,47.3-21.3,47.3-47.6v-0.3V386.7c0.9-60.2,50.6-108.4,111.1-107.6
		c59,0.9,106.4,48.5,107.6,107.6v233.2c0,26.3,21.3,47.4,47.3,47.4c26,0,47.3-21.3,47.3-47.4V386.7
		C1834.9,273.9,1743.4,182.4,1630.6,182.4z"/>
	<path class="st0" d="M2510.7,182.7c-26.3,0-47.3,21.3-47.3,47.3v389.9c0,26.3,21.3,47.3,47.3,47.3c26,0,47.4-21.3,47.4-47.3V230.3
		C2558,204,2537,182.7,2510.7,182.7z"/>
	<path class="st0" d="M2510.7,134.4c34.7,0,62.8-28.1,62.8-62.8c0-34.7-28.1-62.8-62.8-62.8c-34.7,0-62.8,28.1-62.8,62.8
		C2447.9,106.3,2476,134.4,2510.7,134.4z"/>
	<path class="st0" d="M437.8,182.4c-26.3,0-47.4,21.3-47.4,47.3v195c0,81.5-66.1,147.6-147.6,147.6c-81.5,0-147.6-66.1-147.6-147.6
		V230c0-26.3-21.3-47.4-47.3-47.4S0,203.7,0,230v195.2c0.3,133.9,109,242.6,242.9,242.3c45.9,0,90.9-13.2,129.8-37.7
		c5-3.2,12-1.8,15.2,3.2c1.2,1.8,1.8,3.8,1.8,5.8c-7.3,81.3-78.9,141.2-160.2,133.9C185,768.7,145,745,120.1,708.2
		c-14.9-21.6-44.4-27.2-66.1-12.3c-19.6,13.4-26,39.2-15.5,60.2c0.9,2,2,4.1,3.5,5.8c75.1,110.8,226.2,139.7,337,64.3
		c66.6-45.3,106.4-120.4,106.4-200.8V230C485.2,203.7,463.9,182.4,437.8,182.4z"/>
	<path class="st0" d="M3428.5,182.4c-133.9,0-242.6,108.4-242.6,242.6c0,133.9,108.4,242.6,242.6,242.6c46.2,0,91.2-13.2,130.1-37.7
		c5-3.2,12-1.8,15.2,3.2c1.2,1.8,1.8,3.8,1.8,5.8c-7.6,81.3-79.5,140.9-160.5,133.3c-44.1-4.1-84.2-27.8-109-64.6
		c-14.9-21.6-44.4-27.2-66.1-12.3c-19.6,13.4-26,39.2-15.5,60.2c0.9,2,2.1,4.1,3.5,5.8c75.1,110.8,226.2,139.7,337,64.6
		c66.4-45,106.4-120.4,106.4-200.8V417.4C3667,286.4,3559.7,182.4,3428.5,182.4z M3428.5,572.6c-81.6,0-147.6-66.1-147.6-147.6
		s66.1-147.6,147.6-147.6c81.5,0,147.6,66.1,147.6,147.6S3510,572.6,3428.5,572.6z"/>
	<path class="st0" d="M2148.6,182.4c-133.9,0-242.6,108.7-242.6,242.6v389.9c0,26.3,21.3,47.3,47.4,47.3c26,0,47.3-21.3,47.3-47.3
		V638.6c0-6.1,5-10.8,11.1-10.8c2,0,4.1,0.6,5.8,1.8c112.8,72.2,263,38.9,335-73.9c72.2-112.8,38.9-263.1-73.9-335
		C2240,195.8,2194.7,182.4,2148.6,182.4z M2148.6,572.6c-81.6,0-147.6-66.1-147.6-147.6s66.1-147.6,147.6-147.6
		c81.5,0,147.6,66.1,147.6,147.6S2230.1,572.6,2148.6,572.6z"/>
	<path class="st0" d="M4263.2,0c-60.2,0-109,48.8-109,109c0,60.2,48.8,109,109,109s109-48.8,109-109
		C4371.9,48.8,4323.4,0.3,4263.2,0z M4263.2,197.6c-48.8,0-88.6-39.5-88.6-88.6c0-48.8,39.5-88.6,88.6-88.6
		c49.1,0,88.6,39.5,88.6,88.6C4351.5,157.8,4312,197.3,4263.2,197.6z"/>
	<path class="st0" d="M4307.6,152l-18.7-26c-0.3-0.3-0.3-0.6-0.3-0.9c0-0.6,0.3-1.2,0.9-1.5c18.1-9.9,24.8-32.4,15.2-50.6
		c-6.4-12-19-19.6-32.7-19.6h-39.5c-5.3,0-9.4,4.1-9.4,9.4v94.7c0.3,5.3,4.7,9.1,9.9,8.8c4.7-0.3,8.5-4.1,8.8-8.8v-27.8
		c0-0.9,0.6-1.8,1.8-1.8h23.1c0.6,0,0.9,0.3,1.2,0.6l24.3,34.2c2.9,4.1,8.8,5.3,13.1,2c2.3-1.8,3.8-4.7,3.8-7.6
		C4309.4,155.5,4308.8,153.7,4307.6,152z M4272,109.3h-28.4c-0.9,0-1.8-0.6-1.8-1.5V73.7c0-0.9,0.6-1.8,1.8-1.8h28.6
		c10.2-0.3,19,7.6,19.3,17.8c0.3,10.2-7.6,19-17.8,19.3C4272.9,109.3,4272.3,109.3,4272,109.3z"/>
</g>
</svg>
